<svg width="9" height="14" viewBox="0 0 9 14" fill="none" xmlns="http://www.w3.org/2000/svg">
<path d="M8.00781 6.85938C8.00781 6.66406 7.92969 6.48438 7.78125 6.34375L1.59375 0.28125C1.45312 0.148438 1.28125 0.078125 1.07812 0.078125C0.679688 0.078125 0.367188 0.382812 0.367188 0.789062C0.367188 0.984375 0.445312 1.16406 0.570312 1.29688L6.25781 6.85938L0.570312 12.4219C0.445312 12.5547 0.367188 12.7266 0.367188 12.9297C0.367188 13.3359 0.679688 13.6406 1.07812 13.6406C1.28125 13.6406 1.45312 13.5703 1.59375 13.4297L7.78125 7.375C7.92969 7.22656 8.00781 7.05469 8.00781 6.85938Z" fill="#3C3C43" fill-opacity="0.29"/>
</svg>
