<svg width="12" height="20" viewBox="0 0 12 20" fill="none" xmlns="http://www.w3.org/2000/svg">
<path d="M1.26221 19.2871C1.74365 19.2871 2.05908 19.0464 2.74805 18.374L5.91895 15.2197C5.96045 15.1865 6.02686 15.1865 6.06836 15.2197L9.23926 18.374C9.93652 19.0464 10.2354 19.2871 10.7251 19.2871C11.4639 19.2871 11.9287 18.7725 11.9287 17.959V3.42432C11.9287 1.73096 11.0156 0.80957 9.33887 0.80957H2.64844C0.97168 0.80957 0.0585938 1.73096 0.0585938 3.42432V17.959C0.0585938 18.7725 0.531738 19.2871 1.26221 19.2871ZM2.13379 16.249C2.02588 16.3486 1.89307 16.3154 1.89307 16.1577V3.57373C1.89307 2.95117 2.2002 2.65234 2.82275 2.65234H9.16455C9.78711 2.65234 10.0942 2.95117 10.0942 3.57373V16.1577C10.0942 16.3154 9.96973 16.3486 9.85352 16.249L6.61621 13.103C6.20947 12.7129 5.77783 12.7129 5.37109 13.103L2.13379 16.249Z" fill="black"/>
</svg>
