<svg width="10" height="17" viewBox="0 0 10 17" fill="none" xmlns="http://www.w3.org/2000/svg">
<path d="M9.1575 1.36708C9.06558 1.27493 8.95638 1.20181 8.83615 1.15192C8.71593 1.10203 8.58704 1.07635 8.45688 1.07635C8.32671 1.07635 8.19783 1.10203 8.0776 1.15192C7.95738 1.20181 7.84818 1.27493 7.75625 1.36708L1.1775 7.94583C1.10411 8.01907 1.04589 8.10607 1.00616 8.20184C0.966433 8.29761 0.945984 8.40027 0.945984 8.50396C0.945984 8.60764 0.966433 8.71031 1.00616 8.80608C1.04589 8.90185 1.10411 8.98884 1.1775 9.06208L7.75625 15.6408C8.14417 16.0287 8.76959 16.0287 9.1575 15.6408C9.54542 15.2529 9.54542 14.6275 9.1575 14.2396L3.42584 8.5L9.16542 2.76042C9.54542 2.38042 9.54542 1.74708 9.1575 1.36708Z" fill="#1E232C" stroke="#1E232C" stroke-width="0.2"/>
</svg>
